# xmcd
#
# Track frame offsets: 
#        150
#        18073
#        33107
#        47403
#        62794
#        81262
#        101230
#        125406
#        138547
#        154537
#        176624
#        200700
#
# Disc length: 2955 seconds
#
# Revision: 0
# Processed by: cddbd v1.5.2PL0 Copyright (c) Steve Scherf et al.
# Submitted via: ExactAudioCopy v0.90b4
#
DISCID=9a0b890c
DTITLE=Karl W. Davis and the Milkmen - Blues for Alix
DYEAR=2007
DGENRE=Blues
TTITLE0=Sunshine
TTITLE1=Tao of funk
TTITLE2=Playin' a game
TTITLE3=P.A.M.F
TTITLE4=Blues for Alix
TTITLE5=TRAKTOR
TTITLE6=Cryin'
TTITLE7=Call me
TTITLE8=I know I've been changed
TTITLE9=In the evening
TTITLE10=Tear it up!
TTITLE11=Nana
EXTD=
EXTT0=
EXTT1=
EXTT2=
EXTT3=
EXTT4=
EXTT5=
EXTT6=
EXTT7=
EXTT8=
EXTT9=
EXTT10=
EXTT11=
PLAYORDER=
